<?xml version="1.0" encoding="UTF-8" standalone="no"?>
<!-- Created with Inkscape (http://www.inkscape.org/) -->

<svg
   xmlns:dc="http://purl.org/dc/elements/1.1/"
   xmlns:cc="http://creativecommons.org/ns#"
   xmlns:rdf="http://www.w3.org/1999/02/22-rdf-syntax-ns#"
   xmlns:svg="http://www.w3.org/2000/svg"
   xmlns="http://www.w3.org/2000/svg"
   xmlns:sodipodi="http://sodipodi.sourceforge.net/DTD/sodipodi-0.dtd"
   xmlns:inkscape="http://www.inkscape.org/namespaces/inkscape"
   width="93.330933mm"
   height="31.556625mm"
   viewBox="0 0 330.70015 111.81481"
   id="svg5531"
   version="1.1"
   inkscape:version="0.91 r13725"
   sodipodi:docname="k0dr_logo_test.svg">
  <defs
     id="defs5533" />
  <sodipodi:namedview
     id="base"
     pagecolor="#ffffff"
     bordercolor="#666666"
     borderopacity="1.0"
     inkscape:pageopacity="0.0"
     inkscape:pageshadow="2"
     inkscape:zoom="0.35"
     inkscape:cx="-328.84003"
     inkscape:cy="49.726308"
     inkscape:document-units="px"
     inkscape:current-layer="layer1"
     showgrid="false"
     fit-margin-top="0"
     fit-margin-left="0"
     fit-margin-right="0"
     fit-margin-bottom="0"
     inkscape:window-width="2560"
     inkscape:window-height="1391"
     inkscape:window-x="0"
     inkscape:window-y="1"
     inkscape:window-maximized="1" />
  <metadata
     id="metadata5536">
    <rdf:RDF>
      <cc:Work
         rdf:about="">
        <dc:format>image/svg+xml</dc:format>
        <dc:type
           rdf:resource="http://purl.org/dc/dcmitype/StillImage" />
        <dc:title></dc:title>
      </cc:Work>
    </rdf:RDF>
  </metadata>
  <g
     inkscape:label="Layer 1"
     inkscape:groupmode="layer"
     id="layer1"
     transform="translate(-206.69717,-470.2737)">
    <g
       style="display:inline"
       transform="matrix(0.23974344,0,0,0.23974344,209.44497,364.41729)"
       id="g5458">
      <g
         transform="matrix(1.5493775,0,0,1.5493775,-616.68553,61.093039)"
         style="display:inline"
         id="g5219-4-4-6-5">
        <g
           transform="translate(120.20815,-66.670068)"
           id="g3538-2-4-8-7">
          <g
             id="g4291-7-3-9-1"
             transform="matrix(2.345542,-0.09992772,0.09992772,2.345542,90.073903,285.98724)">
            <g
               transform="matrix(1.25,0,0,-1.25,100.2021,95.270492)"
               id="g32-7-6-9-4">
              <path
                 sodipodi:nodetypes="ccccccccc"
                 inkscape:connector-curvature="0"
                 id="path34-9-1-8-2"
                 d="M -0.40929399,0 C -6.3879169,-11.015334 -12.965665,-20.610159 -16.609261,-31.756345 c -2.227585,-5.091315 -2.961476,-4.464887 -2.961476,-4.464887 0.0079,4.236874 2.94947,12.315096 4.788418,17.356106 C -4.6617253,2.5789713 -0.81212773,7.6247768 8.9377605,22.59975 12.511159,27.73118 36.672029,56.27034 41.219088,60.456237 c 2.30339,2.883713 10.908543,1.22399 8.71554,-2.524967 C 41.094237,52.112206 32.961879,45.108893 26.321082,36.823527 19.298765,29.102646 13.174276,20.655967 7.2726563,12.079543"
                 style="fill:#1b75bc;fill-opacity:1;fill-rule:evenodd;stroke:none" />
            </g>
            <g
               transform="matrix(1.25,0,0,-1.25,110.85554,102.52192)"
               id="g76-2-9-6-6" />
          </g>
        </g>
        <path
           sodipodi:nodetypes="cccccccccccccccc"
           inkscape:connector-curvature="0"
           id="path78-3-6-8-8"
           d="m 443.15818,347.21816 c 1.10279,0.31808 24.09664,-16.28888 24.75108,-14.6538 -16.17529,18.20331 -33.39814,35.93048 -44.65214,57.82198 -13.42176,24.60513 -20.52637,49.59979 -17.35708,77.73246 1.46527,17.33724 26.78729,18.41076 38.92779,9.23307 21.41785,-13.19972 36.82612,-34.12335 52.70664,-52.86788 23.60949,-31.68598 46.28708,-63.55725 54.18865,-103.92038 0.66442,-15.4363 -7.13429,-31.51067 -23.19397,-30.07822 -24.85252,-0.23024 -47.13148,14.57139 -63.17169,32.48996 -15.02574,10.88674 6.99615,-12.45398 12.35585,-16.71079 14.90993,-13.70774 33.1929,-29.0468 54.97581,-25.30637 18.3693,1.79046 36.37519,17.77128 33.58678,37.42789 6.02811,36.36257 -34.78426,87.99444 -63.30125,124.91686 -19.6673,23.432 -41.42903,46.00073 -71.32071,52.8399 -19.40038,5.12812 -36.54122,-5.38782 -40.73361,-30.15983 -3.41712,-46.22655 23.26327,-89.30384 52.23785,-118.76485 z"
           style="display:inline;fill:#1b75bc;fill-opacity:1;fill-rule:evenodd;stroke:none" />
      </g>
      <g
         style="display:inline"
         id="g5346-5-8"
         transform="matrix(1.3624901,0,0,1.3624901,22.845472,391.84684)">
        <text
           sodipodi:linespacing="125%"
           id="text5188-2-9-3"
           y="295.93463"
           x="610.55127"
           style="font-style:normal;font-weight:normal;font-size:81.84464264px;line-height:125%;font-family:sans-serif;text-align:center;letter-spacing:0px;word-spacing:0px;text-anchor:middle;display:inline;fill:#000000;fill-opacity:1;stroke:none;stroke-width:1px;stroke-linecap:butt;stroke-linejoin:miter;stroke-opacity:1"
           xml:space="preserve"><tspan
             style="font-style:normal;font-variant:normal;font-weight:normal;font-stretch:normal;font-size:368.30090332px;font-family:'Share Tech Mono';-inkscape-font-specification:'Share Tech Mono'"
             y="295.93463"
             x="610.55127"
             id="tspan5190-9-3-3"
             sodipodi:role="line">K0DR</tspan></text>
        <text
           sodipodi:linespacing="125%"
           id="text5342-9-9"
           y="366.95245"
           x="618.0943"
           style="font-style:normal;font-weight:normal;font-size:222.67999268px;line-height:125%;font-family:sans-serif;text-align:center;letter-spacing:0px;word-spacing:0px;text-anchor:middle;fill:#000000;fill-opacity:1;stroke:none;stroke-width:1px;stroke-linecap:butt;stroke-linejoin:miter;stroke-opacity:1"
           xml:space="preserve"><tspan
             style="font-style:normal;font-variant:normal;font-weight:normal;font-stretch:normal;font-size:69.5874939px;font-family:'Share Tech Mono';-inkscape-font-specification:'Share Tech Mono'"
             y="366.95245"
             x="618.0943"
             id="tspan5344-1-7"
             sodipodi:role="line">Open Source Workshop</tspan></text>
      </g>
    </g>
  </g>
</svg>
