<?xml version="1.0" encoding="UTF-8" standalone="no"?>
<svg
   xmlns:dc="http://purl.org/dc/elements/1.1/"
   xmlns:cc="http://creativecommons.org/ns#"
   xmlns:rdf="http://www.w3.org/1999/02/22-rdf-syntax-ns#"
   xmlns:svg="http://www.w3.org/2000/svg"
   xmlns="http://www.w3.org/2000/svg"
   xmlns:sodipodi="http://sodipodi.sourceforge.net/DTD/sodipodi-0.dtd"
   xmlns:inkscape="http://www.inkscape.org/namespaces/inkscape"
   viewBox="0 0 90.684319 122.70662"
   height="34.630535mm"
   width="25.593128mm"
   xml:space="preserve"
   version="1.1"
   id="svg2"
   inkscape:version="0.91 r13725"
   sodipodi:docname="k0dr_0.svg"><sodipodi:namedview
     pagecolor="#ffffff"
     bordercolor="#666666"
     borderopacity="1"
     objecttolerance="10"
     gridtolerance="10"
     guidetolerance="10"
     inkscape:pageopacity="0"
     inkscape:pageshadow="2"
     inkscape:window-width="1280"
     inkscape:window-height="751"
     id="namedview4229"
     showgrid="false"
     inkscape:zoom="1.3821007"
     inkscape:cx="58.195567"
     inkscape:cy="160.83791"
     inkscape:window-x="1495"
     inkscape:window-y="1223"
     inkscape:window-maximized="1"
     inkscape:current-layer="svg2"
     showguides="true"
     inkscape:guide-bbox="true"
     fit-margin-top="0"
     fit-margin-left="0"
     fit-margin-right="0"
     fit-margin-bottom="0" /><metadata
     id="metadata8"><rdf:RDF><cc:Work
         rdf:about=""><dc:format>image/svg+xml</dc:format><dc:type
           rdf:resource="http://purl.org/dc/dcmitype/StillImage" /><dc:title></dc:title></cc:Work></rdf:RDF></metadata><defs
     id="defs6"><clipPath
       id="clipPath20"
       clipPathUnits="userSpaceOnUse"><path
         id="path22"
         d="M 0,792 612,792 612,0 0,0 0,792 Z"
         inkscape:connector-curvature="0" /></clipPath></defs><g
     id="g4291"
     transform="translate(-72.379223,-17.870937)"><g
       transform="matrix(1.25,0,0,-1.25,100.2021,95.270492)"
       id="g32"><path
         sodipodi:nodetypes="ccccccccc"
         inkscape:connector-curvature="0"
         id="path34"
         d="M -0.40929399,0 C -6.3879169,-11.015334 -12.965665,-20.610159 -16.609261,-31.756345 c -2.227585,-5.091315 -2.961476,-4.464887 -2.961476,-4.464887 0.0079,4.236874 2.94947,12.315096 4.788418,17.356106 C -4.6617253,2.5789713 -0.81212773,7.6247768 8.9377605,22.59975 12.511159,27.73118 36.672029,56.27034 41.219088,60.456237 c 2.30339,2.883713 10.908543,1.22399 8.71554,-2.524967 C 41.094237,52.112206 32.961879,45.108893 26.321082,36.823527 19.298765,29.102646 13.174276,20.655967 7.2726563,12.079543"
         style="fill:#1b75bc;fill-opacity:1;fill-rule:evenodd;stroke:none" /></g><g
       transform="matrix(1.25,0,0,-1.25,110.85554,102.52192)"
       id="g76"><path
         sodipodi:nodetypes="cccccccccccccccc"
         inkscape:connector-curvature="0"
         id="path78"
         d="m -11.255817,35.095308 c 0.370838,-0.124286 8.4400757,5.196117 8.6391652,4.629954 C -8.3876314,33.762474 -14.508354,27.976984 -18.657355,20.687156 -23.58374,12.504901 -26.365071,4.0984051 -25.694121,-5.5254611 c 0.24739,-5.9237989 8.852818,-6.6565639 13.119225,-3.7080706 C -5.0916373,-5.0502789 0.45766769,1.8497786 6.1361416,8.0011017 14.63369,18.446295 22.816657,28.96809 26.09223,42.595294 26.54233,47.841019 24.120371,53.426727 18.632005,53.171982 10.174187,53.61084 2.3745231,48.8947 -3.3463392,43.026896 c -5.273488,-3.488499 2.56251103,4.138541 4.4489873,5.510049 5.274978,4.450604 11.7219829,9.407674 19.0838229,7.818276 6.227945,-0.876008 12.12634,-6.577917 10.891904,-13.229657 C 32.603252,30.658325 17.9596,13.67198 7.7153187,1.5151962 0.67962524,-6.1770731 -7.0566018,-13.545059 -17.332561,-15.439925 c -6.679332,-1.464498 -12.36248,2.364322 -13.430494,10.8588745 -0.492881,15.7876075 9.215392,30.0664845 19.507238,39.6763585 z"
         style="fill:#1b75bc;fill-opacity:1;fill-rule:evenodd;stroke:none" /></g></g><flowRoot
     xml:space="preserve"
     id="flowRoot3363"
     style="font-style:normal;font-variant:normal;font-weight:normal;font-stretch:normal;font-size:180px;line-height:125%;font-family:Allerta;-inkscape-font-specification:Allerta;letter-spacing:0px;word-spacing:0px;fill:#000000;fill-opacity:1;stroke:none;stroke-width:1px;stroke-linecap:butt;stroke-linejoin:miter;stroke-opacity:1"
     transform="translate(-69.220878,-18.675216)"><flowRegion
       id="flowRegion3365"><rect
         id="rect3367"
         width="419.65106"
         height="318.35599"
         x="-12.300117"
         y="-117.05738"
         style="font-style:normal;font-variant:normal;font-weight:normal;font-stretch:normal;font-family:Allerta;-inkscape-font-specification:Allerta" /></flowRegion><flowPara
       id="flowPara3369" /></flowRoot></svg>