<?xml version="1.0" encoding="UTF-8" standalone="no"?>
<!-- Generator: Gravit.io -->

<svg
   style="isolation:isolate"
   viewBox="0 0 767.236 315.648"
   width="767.236"
   height="315.648"
   version="1.1"
   id="svg15949"
   sodipodi:docname="k0dr_logo_wide.svg"
   inkscape:version="1.2 (dc2aeda, 2022-05-15)"
   xmlns:inkscape="http://www.inkscape.org/namespaces/inkscape"
   xmlns:sodipodi="http://sodipodi.sourceforge.net/DTD/sodipodi-0.dtd"
   xmlns="http://www.w3.org/2000/svg"
   xmlns:svg="http://www.w3.org/2000/svg">
  <defs
     id="defs15953">
    <rect
       x="386.92499"
       y="335.55359"
       width="85.254654"
       height="48.092373"
       id="rect880" />
  </defs>
  <sodipodi:namedview
     id="namedview15951"
     pagecolor="#ffffff"
     bordercolor="#666666"
     borderopacity="1.0"
     inkscape:showpageshadow="2"
     inkscape:pageopacity="0.0"
     inkscape:pagecheckerboard="0"
     inkscape:deskcolor="#d1d1d1"
     showgrid="false"
     inkscape:zoom="1.762689"
     inkscape:cx="390.02909"
     inkscape:cy="130.76612"
     inkscape:window-width="2217"
     inkscape:window-height="1205"
     inkscape:window-x="2132"
     inkscape:window-y="144"
     inkscape:window-maximized="0"
     inkscape:current-layer="svg15949" />
  <g
     id="Group">
    <g
       id="g3538">
      <g
         id="g4291">
        <g
           id="g32">
          <path
             d=" M 67.207 199.752 C 49.977 234.998 30.684 265.881 20.774 301.225 C 14.486 317.444 12.108 315.583 12.108 315.583 C 11.568 302.332 19.691 276.676 24.77 260.666 C 53.564 192.253 64.931 175.96 93.428 127.829 C 103.919 111.305 175.677 18.832 189.34 5.136 C 196.159 -4.19 223.292 -0.146 216.933 11.871 C 190.061 31.247 165.561 54.233 145.897 81.029 C 124.964 106.111 106.936 133.343 89.622 160.951"
             fill-rule="evenodd"
             fill="rgb(27,117,188)"
             id="path15931" />
        </g>
      </g>
    </g>
    <path
       d=" M 56.036 108.448 C 57.213 108.787 81.739 91.073 82.438 92.817 C 65.184 112.234 46.813 131.143 34.809 154.494 C 20.492 180.739 12.914 207.4 16.294 237.408 C 17.857 255.901 44.867 257.046 57.817 247.257 C 80.663 233.177 97.099 210.859 114.038 190.865 C 139.221 157.066 163.411 123.07 171.839 80.016 C 172.548 63.551 164.229 46.405 147.099 47.933 C 120.589 47.687 96.825 63.475 79.716 82.589 C 63.688 94.201 87.178 69.304 92.895 64.764 C 108.799 50.142 128.301 33.781 151.536 37.77 C 171.13 39.68 190.336 56.726 187.362 77.693 C 193.792 116.48 150.259 171.554 119.841 210.938 C 98.862 235.932 75.65 260.005 43.765 267.301 C 23.071 272.771 4.788 261.554 0.316 235.13 C -3.329 185.822 25.13 139.873 56.036 108.448 L 56.036 108.448 Z "
       fill-rule="evenodd"
       fill="rgb(27,117,188)"
       id="path15936" />
  </g>
  <path
     d="m 244.68426,150.09905 -16.91516,15.44991 v 104.19713 h -9.71723 V 45.90191 l 9.71713,9e-5 c 8.8e-4,0.755837 -0.0408,6.483178 0,14.012629 l 1e-4,94.855321 113.3676,-109.945942 c 0.47986,0.239533 0.95972,0.479067 1.43959,0.718601 0.71979,0 1.43959,0.119767 2.15938,0.359301 h 2.15938 1.79949 3.59897 L 251.8822,143.63163 358.05187,269.74609 346.89505,270.824 Z"
     style="font-weight:200;font-size:40px;line-height:1.25;font-family:Inconsolata;-inkscape-font-specification:'Inconsolata Ultra-Light';white-space:pre;fill:#1b75bc;stroke-width:8.98997"
     id="path16274"
     sodipodi:nodetypes="cccccccccccccccccc" />
  <path
     d="m 360.81589,220.35799 102.11204,-127.993528 3.99725,8.045308 -102.47541,128.35921 z m 52.32788,50.46602 q -21.4399,0 -36.33881,-12.43366 -14.89891,-12.79935 -22.53006,-38.03236 -7.63114,-25.23301 -7.63114,-62.53398 0,-36.20389 7.63114,-61.436903 7.63115,-25.233006 22.53006,-38.398054 14.89891,-13.165049 36.33881,-13.165049 21.80327,0 36.3388,13.165049 14.89891,13.165048 22.53005,38.398054 7.63114,25.233013 7.63114,61.436903 0,37.30097 -7.63114,62.53398 -7.63114,25.23301 -22.53005,38.03236 -14.53553,12.43366 -36.3388,12.43366 z m 0,-8.7767 q 19.62294,0 31.97814,-12.06795 12.71859,-12.43367 18.53278,-35.83819 6.17761,-23.40455 6.17761,-56.31716 0,-32.54693 -6.17761,-55.58576 -5.81419,-23.404536 -18.53278,-35.838194 -12.3552,-12.799353 -31.97814,-12.799353 -19.25957,0 -31.97815,13.165049 -12.71859,12.799353 -18.89617,36.203888 -5.81422,23.40453 -5.81422,54.85437 0,32.91261 5.81422,56.31716 6.17758,23.40452 18.89617,35.83819 12.71858,12.06795 31.97815,12.06795 z"
     style="font-weight:200;font-size:40px;line-height:1.25;font-family:Inconsolata;-inkscape-font-specification:'Inconsolata Ultra-Light';white-space:pre;fill:#1b75bc;stroke-width:9.1135"
     id="path16276" />
  <path
     d="M 490.92927,270.82401 V 44.824003 h 44.21543 q 19.10106,0 31.8351,3.621796 12.73404,3.621794 21.57712,10.503205 9.19681,6.51923 16.27128,16.660255 7.4282,10.141027 11.31915,22.817309 4.24469,12.676282 6.0133,27.887832 1.76862,14.84935 1.76862,32.59615 -0.35373,27.16346 -5.65957,48.16987 -4.95213,20.64423 -15.91756,35.1314 -10.6117,14.125 -28.29787,21.36859 -17.33245,7.2436 -43.15426,7.2436 z m 9.55053,-8.69231 h 29.35904 q 31.48139,0 49.875,-11.58975 18.74734,-11.95192 26.52926,-34.76922 8.13564,-22.81731 8.13564,-55.41346 0,-36.94231 -7.4282,-60.483984 Q 599.52235,76.333619 581.83618,65.106054 564.15001,53.516311 533.7298,53.516311 h -33.25 z"
     style="font-weight:200;font-size:40px;line-height:1.25;font-family:Inconsolata;-inkscape-font-specification:'Inconsolata Ultra-Light';white-space:pre;fill:#1b75bc;stroke-width:8.94816"
     id="path16278" />
  <path
     d="M 634.82625,270.82401 V 44.824003 h 59.27173 q 24.9375,0 39.75545,7.255217 14.81793,6.892456 21.32337,20.677368 6.50543,13.422151 6.50543,33.011242 0,14.51043 -6.86685,26.8443 -6.50544,12.33387 -18.07066,20.31461 -11.56521,7.98073 -25.66032,10.1573 l 56.74185,107.73997 H 757.70668 L 700.60342,163.80956 H 644.5844 V 270.82401 Z M 644.5844,155.1033 h 52.40489 q 27.8288,0 41.20109,-14.51043 13.73369,-14.8732 13.73369,-34.82504 0,-16.687004 -5.42119,-28.295351 -5.05979,-11.608347 -16.98642,-17.775282 -11.92663,-6.166933 -32.52717,-6.166933 H 644.5844 Z"
     style="font-weight:200;font-size:40px;line-height:1.25;font-family:Inconsolata;-inkscape-font-specification:'Inconsolata Ultra-Light';white-space:pre;fill:#1b75bc;stroke-width:9.05216"
     id="path16280" />
</svg>
