<?xml version="1.0" standalone="no"?><!-- Generator: Gravit.io --><svg xmlns="http://www.w3.org/2000/svg" xmlns:xlink="http://www.w3.org/1999/xlink" style="isolation:isolate" viewBox="0 0 767.236 315.648" width="767.236" height="315.648"><g id="Group"><g id="g3538"><g id="g4291"><g id="g32"><path d=" M 67.207 199.752 C 49.977 234.998 30.684 265.881 20.774 301.225 C 14.486 317.444 12.108 315.583 12.108 315.583 C 11.568 302.332 19.691 276.676 24.77 260.666 C 53.564 192.253 64.931 175.96 93.428 127.829 C 103.919 111.305 175.677 18.832 189.34 5.136 C 196.159 -4.19 223.292 -0.146 216.933 11.871 C 190.061 31.247 165.561 54.233 145.897 81.029 C 124.964 106.111 106.936 133.343 89.622 160.951" fill-rule="evenodd" fill="rgb(27,117,188)"/></g></g></g><path d=" M 56.036 108.448 C 57.213 108.787 81.739 91.073 82.438 92.817 C 65.184 112.234 46.813 131.143 34.809 154.494 C 20.492 180.739 12.914 207.4 16.294 237.408 C 17.857 255.901 44.867 257.046 57.817 247.257 C 80.663 233.177 97.099 210.859 114.038 190.865 C 139.221 157.066 163.411 123.07 171.839 80.016 C 172.548 63.551 164.229 46.405 147.099 47.933 C 120.589 47.687 96.825 63.475 79.716 82.589 C 63.688 94.201 87.178 69.304 92.895 64.764 C 108.799 50.142 128.301 33.781 151.536 37.77 C 171.13 39.68 190.336 56.726 187.362 77.693 C 193.792 116.48 150.259 171.554 119.841 210.938 C 98.862 235.932 75.65 260.005 43.765 267.301 C 23.071 272.771 4.788 261.554 0.316 235.13 C -3.329 185.822 25.13 139.873 56.036 108.448 L 56.036 108.448 Z " fill-rule="evenodd" fill="rgb(27,117,188)"/></g><g id="Group"><path d=" M 266.601 182.86 L 266.601 268 L 237.891 268 L 237.891 37 L 266.601 37 L 266.601 136.66 L 329.301 37 L 360.651 37 L 296.961 138.97 L 364.611 268 L 331.611 268 L 279.141 164.05 L 266.601 182.86 Z " fill="rgb(27,117,188)"/><path d=" M 481.941 211.9 Q 481.941 239.29 466.761 253.81 Q 451.911 268 426.501 268 L 419.901 268 Q 394.491 268 379.311 253.81 Q 364.461 239.29 364.461 211.9 L 364.461 93.1 Q 364.461 65.38 379.311 51.19 Q 394.161 37 419.901 37 L 426.501 37 Q 452.241 37 467.091 51.19 Q 481.941 65.38 481.941 93.1 L 481.941 211.9 L 481.941 211.9 Z  M 453.891 86.83 Q 453.891 76.6 445.971 69.34 Q 438.381 61.75 426.501 61.75 L 419.901 61.75 Q 408.021 61.75 400.101 69.34 Q 392.511 76.6 392.511 86.83 L 392.511 176.26 L 453.891 86.83 L 453.891 86.83 Z  M 392.511 218.17 Q 392.511 228.4 400.101 235.99 Q 408.021 243.25 419.901 243.25 L 426.501 243.25 Q 438.381 243.25 445.971 235.99 Q 453.891 228.4 453.891 218.17 L 453.891 129.07 L 392.511 218.17 Z " fill="rgb(27,117,188)"/><path d=" M 618.777 215.86 Q 618.777 244.24 605.577 256.12 Q 592.707 268 562.677 268 L 494.697 268 L 494.697 37 L 558.717 37 Q 588.417 37 603.597 49.21 Q 618.777 61.09 618.777 88.48 L 618.777 215.86 L 618.777 215.86 Z  M 590.067 85.51 Q 590.067 74.62 583.467 68.35 Q 576.867 61.75 565.977 61.75 L 523.407 61.75 L 523.407 243.25 L 565.647 243.25 Q 578.187 243.25 584.127 237.64 Q 590.067 231.7 590.067 219.16 L 590.067 85.51 L 590.067 85.51 Z " fill="rgb(27,117,188)"/><path d=" M 660.976 172.3 L 660.976 268 L 632.266 268 L 632.266 37 L 694.306 37 Q 722.356 37 736.546 49.54 Q 751.066 61.75 751.066 88.48 L 751.066 120.16 Q 751.066 157.45 721.366 166.69 L 767.236 268 L 735.886 268 L 693.316 172.3 L 660.976 172.3 L 660.976 172.3 Z  M 722.356 85.51 Q 722.356 72.97 716.416 67.36 Q 710.806 61.75 698.266 61.75 L 660.976 61.75 L 660.976 147.55 L 698.266 147.55 Q 710.806 147.55 716.416 141.94 Q 722.356 136 722.356 123.46 L 722.356 85.51 Z " fill="rgb(27,117,188)"/></g></svg>